<svg xmlns="http://www.w3.org/2000/svg">
    <symbol id="icon-logo" viewBox="0 0 54 32">
        <path opacity="0.998" d="M23.686 5.441c-0.037 0.088-0.061 0.184-0.072 0.287-0.063 1.509-0.141 3.017-0.233 4.525-0.117 1.774-0.237 3.546-0.359 5.315-0.029 0.277-0.023 0.552 0.018 0.826 0.146 0.14 0.29 0.14 0.431 0 0.817-1.169 1.637-2.33 2.46-3.484 0.167-0.195 0.376-0.285 0.628-0.269 0.908 0.479 1.818 0.957 2.73 1.437 0.149-0.023 0.298-0.053 0.449-0.090 0.083-0 0.16 0.018 0.233 0.054 0.551 0.95 1.090 1.902 1.616 2.855 0.057 0.041 0.116 0.047 0.18 0.018 0.178-0.13 0.28-0.304 0.305-0.521 0.288-4.266 0.599-8.527 0.934-12.786 0.117-0.683 0.434-1.252 0.952-1.706 0.057-0.031 0.117-0.055 0.18-0.072 1.589-0.234 3.175-0.467 4.759-0.7 0.117 0.015 0.231 0.045 0.341 0.090 0.322 0.232 0.544 0.537 0.664 0.916 0.030 0.142 0.048 0.286 0.054 0.431-0.036 0.36-0.078 0.719-0.126 1.077-1.223 8.451-2.468 16.891-3.735 25.32-0.033 0.166-0.092 0.322-0.18 0.467-0.097 0.085-0.181 0.181-0.251 0.287-0.124 0.089-0.262 0.143-0.413 0.162-1.269 0.024-2.538 0.024-3.807 0-0.25-0.059-0.424-0.208-0.521-0.449-0.738-1.931-1.456-3.871-2.155-5.818-0.147-0.321-0.393-0.434-0.736-0.341-0.633-0.179-1.268-0.353-1.903-0.521-0.179 0.028-0.328 0.112-0.449 0.251-1.15 2.145-2.288 4.3-3.412 6.465-0.102 0.090-0.192 0.192-0.269 0.305-0.093 0.043-0.189 0.079-0.287 0.108-1.293 0.024-2.586 0.024-3.879 0-0.099-0.029-0.194-0.065-0.287-0.108-0.265-0.242-0.39-0.548-0.377-0.916-0.036-7.687-0.024-15.373 0.036-23.057 0.159-0.538 0.464-0.975 0.916-1.311 1.493-0.778 2.99-1.556 4.489-2.334 0.349-0.076 0.66-0.004 0.934 0.216 0.107 0.107 0.185 0.233 0.233 0.377 0.005 0.899-0.025 1.797-0.090 2.694z"></path>
        <path opacity="0.997" d="M42.182 3.466c0.23-0.025 0.445 0.016 0.646 0.126 0.14 0.152 0.266 0.314 0.377 0.485 0.955 1.18 1.901 2.365 2.837 3.556 0.229 0.403 0.372 0.834 0.431 1.293 0.058 3.164 0.142 6.324 0.251 9.481 0.083 0.31 0.215 0.598 0.395 0.862 0.306 0.294 0.6 0.6 0.88 0.916 0.115 0.064 0.235 0.118 0.359 0.162 0.394-0.34 0.771-0.7 1.131-1.077 0.459-0.507 0.938-0.986 1.437-1.437 0.053 0.029 0.107 0.059 0.162 0.090 0.122 0.215 0.23 0.436 0.323 0.664 0.48 1.375 0.971 2.746 1.472 4.112 0.238 0.624 0.418 1.264 0.539 1.921-0.017 0.035-0.041 0.065-0.072 0.090-0.953 0.387-1.899 0.782-2.837 1.185-0.169 0.018-0.337 0.006-0.503-0.036-0.289-0.142-0.582-0.267-0.88-0.377-0.168 0.030-0.276 0.126-0.323 0.287-0.232 1.225-0.472 2.446-0.718 3.663-0.078 0.102-0.156 0.204-0.233 0.305-0.088 0.026-0.172 0.062-0.251 0.108-1.268 0.058-2.537 0.070-3.807 0.036-0.113-0.022-0.221-0.058-0.323-0.108-0.211-0.232-0.27-0.502-0.18-0.808 0.297-1.462 0.608-2.922 0.934-4.382 0.283-0.851 0.092-1.563-0.575-2.137-0.602-0.315-0.955-0.812-1.059-1.49-0.268-5.641-0.532-11.28-0.79-16.916 0.042-0.134 0.090-0.265 0.144-0.395 0.065-0.084 0.143-0.143 0.233-0.18z"></path>
        <path opacity="0.997" d="M14.24 8.135c0.286-0.044 0.507 0.051 0.664 0.287 0.030 0.082 0.053 0.166 0.072 0.251 0.087 1.051 0.111 2.105 0.072 3.161-0.069 0.303-0.153 0.602-0.251 0.898-0.281 0.557-0.634 1.066-1.059 1.526-2.176 1.85-4.366 3.694-6.572 5.531-0.685 0.572-1.248 1.248-1.688 2.029-0.053 0.128-0.095 0.26-0.126 0.395 0.010 1.222 0.046 2.443 0.108 3.663-0.001 0.424 0.209 0.657 0.628 0.7 0.392 0.018 0.775-0.036 1.149-0.162 1.242-0.364 2.475-0.753 3.699-1.167 0.214-0.177 0.31-0.404 0.287-0.682-0.017-0.257-0.035-0.515-0.054-0.772-0.062-0.115-0.158-0.187-0.287-0.215-0.882 0.36-1.762 0.725-2.64 1.095-0.264 0.070-0.527 0.070-0.79 0-0.081-0.093-0.147-0.195-0.198-0.305-0.031-0.64-0.061-1.281-0.090-1.921-0.001-0.164 0.017-0.326 0.054-0.485 0.176-0.391 0.421-0.733 0.736-1.024 1.552-1.069 3.096-2.146 4.633-3.232 0.168-0.084 0.324-0.186 0.467-0.305 0.35-0.171 0.715-0.278 1.095-0.323 0.846 0.078 1.301 0.544 1.365 1.401 0.060 2.765 0.084 5.531 0.072 8.296-0.116 1.124-0.624 2.016-1.526 2.676-0.391 0.258-0.822 0.402-1.293 0.431-2.742 0.034-5.483 0.021-8.224-0.036-0.372-0.025-0.743-0.061-1.113-0.108-0.746-0.103-1.465-0.306-2.155-0.611-0.099-0.087-0.206-0.159-0.323-0.215-0.067-0.081-0.121-0.171-0.162-0.269-0.024-0.97-0.024-1.939 0-2.909 0.118-0.44 0.286-0.859 0.503-1.257 0.82-1.527 1.706-3.012 2.658-4.453 0.492-0.672 0.971-1.354 1.437-2.047 1.631-1.87 3.235-3.762 4.813-5.675 0.998-1.133 1.98-2.282 2.945-3.448 0.306-0.337 0.671-0.576 1.095-0.718z"></path>
    </symbol>
    <symbol id="icon-spotify" viewBox="0 0 32 32">
        <path d="M16 0c-8.837 0-16 7.163-16 16s7.163 16 16 16 16-7.163 16-16c0-8.836-7.163-15.999-16-16zM23.338 23.076c-0.287 0.472-0.902 0.619-1.371 0.332-3.757-2.296-8.486-2.815-14.056-1.543-0.537 0.123-1.072-0.213-1.194-0.75-0.123-0.537 0.212-1.072 0.75-1.194 6.094-1.392 11.323-0.793 15.54 1.784 0.469 0.289 0.619 0.902 0.331 1.371zM25.295 18.721c-0.361 0.587-1.13 0.771-1.716 0.41-4.299-2.643-10.857-3.409-15.943-1.865-0.659 0.2-1.356-0.172-1.557-0.831-0.199-0.659 0.174-1.355 0.832-1.556 5.81-1.763 13.035-0.909 17.973 2.126 0.587 0.361 0.773 1.129 0.412 1.715zM25.464 14.183c-5.158-3.062-13.665-3.344-18.589-1.851-0.79 0.24-1.627-0.206-1.866-0.997s0.206-1.627 0.998-1.867c5.652-1.715 15.047-1.384 20.984 2.14 0.711 0.423 0.944 1.341 0.523 2.050-0.42 0.712-1.341 0.947-2.050 0.524z"></path>
    </symbol>
    <symbol id="icon-weights" viewBox="0 0 32 32">
        <path fill="#929292" style="fill: var(--color1, #929292)" d="M23 17h-13v3.494c0 0.835-0.672 1.506-1.5 1.506-0.834 0-1.5-0.674-1.5-1.506v-0.579c-0.156 0.055-0.325 0.085-0.5 0.085-0.834 0-1.5-0.672-1.5-1.502v-1.498h-2v-1h2v-1.498c0-0.831 0.672-1.502 1.5-1.502 0.176 0 0.344 0.030 0.5 0.085v0-0.578c0-0.835 0.672-1.506 1.5-1.506 0.834 0 1.5 0.674 1.5 1.506v3.494h13v-3.494c0-0.835 0.672-1.506 1.5-1.506 0.834 0 1.5 0.674 1.5 1.506v0.579c0.156-0.055 0.325-0.085 0.5-0.085 0.834 0 1.5 0.672 1.5 1.502v1.498h2v1h-2v1.498c0 0.831-0.672 1.502-1.5 1.502-0.176 0-0.344-0.030-0.5-0.085v0.578c0 0.835-0.672 1.506-1.5 1.506-0.834 0-1.5-0.674-1.5-1.506v-3.494zM26.5 14c-0.276 0-0.5 0.215-0.5 0.498v4.005c0 0.275 0.232 0.498 0.5 0.498 0.276 0 0.5-0.215 0.5-0.498v-4.005c0-0.275-0.232-0.498-0.5-0.498v0zM6.5 14c-0.276 0-0.5 0.215-0.5 0.498v4.005c0 0.275 0.232 0.498 0.5 0.498 0.276 0 0.5-0.215 0.5-0.498v-4.005c0-0.275-0.232-0.498-0.5-0.498v0zM24.5 12c-0.276 0-0.5 0.222-0.5 0.51v7.981c0 0.281 0.232 0.51 0.5 0.51 0.276 0 0.5-0.222 0.5-0.51v-7.981c0-0.281-0.232-0.51-0.5-0.51v0zM8.5 12c-0.276 0-0.5 0.222-0.5 0.51v7.981c0 0.281 0.232 0.51 0.5 0.51 0.276 0 0.5-0.222 0.5-0.51v-7.981c0-0.281-0.232-0.51-0.5-0.51v0z"></path>
    </symbol>
    <symbol id="icon-gmail" class="mdi" role="img" xmlns="http://www.w3.org/2000/svg" viewBox="0 0 24 24">
        <title>gmail</title>
        <path d="M20,18H18V9.25L12,13L6,9.25V18H4V6H5.2L12,10.25L18.8,6H20M20,4H4C2.89,4 2,4.89 2,6V18A2,2 0 0,0 4,20H20A2,2 0 0,0 22,18V6C22,4.89 21.1,4 20,4Z" />
    </symbol>
    <symbol id="icon-gmail" viewBox="0 0 32 32">
        <path d="M30.009 8.237v-0.668c0-1.268-1.038-2.306-2.306-2.306l-0.001 0.001-0.001 0.001 0.002-0.002-23.529 0.001c-1.268 0-2.306 1.038-2.306 2.306v15.75c0 1.268 1.038 2.306 2.306 2.306l22.638-0.001c2.419-0.028 3.145-0.627 3.2-2.303l-0.004-15.084zM25.985 5.828l-10.084 7.428-10.018-7.428h20.102zM5.565 11.599l9.35 6.441-9.356 6.505 0.005-12.946zM5.807 25.061l9.603-6.677 0.168 0.117c0.097 0.067 0.21 0.101 0.322 0.101s0.495-0.22 0.495-0.22l9.605 6.679h-20.194zM26.242 24.541l-9.35-6.501 9.35-6.44v12.942z"></path>
    </symbol>
    <symbol id="icon-instagram" viewBox="0 0 32 32">
        <path d="M15.915 9.425c-3.951 0-7.224 3.217-7.224 7.224s3.217 7.224 7.224 7.224 7.224-3.273 7.224-7.224-3.273-7.224-7.224-7.224zM15.915 21.277c-2.54 0-4.628-2.088-4.628-4.628s2.088-4.628 4.628-4.628 4.628 2.088 4.628 4.628-2.088 4.628-4.628 4.628z"></path>
        <path d="M25.058 9.256c0 0.904-0.733 1.637-1.637 1.637s-1.637-0.733-1.637-1.637c0-0.904 0.733-1.637 1.637-1.637s1.637 0.733 1.637 1.637z"></path>
        <path d="M27.654 5.023c-1.467-1.524-3.556-2.314-5.926-2.314h-11.626c-4.91 0-8.183 3.273-8.183 8.183v11.57c0 2.427 0.79 4.515 2.37 6.039 1.524 1.467 3.556 2.201 5.869 2.201h11.513c2.427 0 4.459-0.79 5.926-2.201 1.524-1.467 2.314-3.556 2.314-5.982v-11.626c0-2.37-0.79-4.402-2.258-5.87zM27.429 22.519c0 1.75-0.621 3.16-1.637 4.12s-2.427 1.467-4.12 1.467h-11.513c-1.693 0-3.104-0.508-4.12-1.467-1.016-1.016-1.524-2.427-1.524-4.176v-11.57c0-1.693 0.508-3.104 1.524-4.12 0.959-0.959 2.427-1.467 4.12-1.467h11.626c1.693 0 3.104 0.508 4.12 1.524 0.959 1.016 1.524 2.427 1.524 4.064v11.626z"></path>
    </symbol>
</svg>