<svg xmlns="http://www.w3.org/2000/svg" width="1516" height="891" style="shape-rendering:geometricPrecision;text-rendering:geometricPrecision;image-rendering:optimizeQuality;fill-rule:evenodd;clip-rule:evenodd">
    <path style="opacity:.998" d="M659.5 151.5c-1.031 2.461-1.698 5.127-2 8a6521.31 6521.31 0 0 1-6.5 126c-3.262 49.397-6.595 98.73-10 148a91.548 91.548 0 0 0 .5 23c4.077 3.893 8.077 3.893 12 0a11885.957 11885.957 0 0 1 68.5-97c4.642-5.432 10.476-7.932 17.5-7.5a84463.655 84463.655 0 0 0 76 40 142.432 142.432 0 0 0 12.5-2.5c2.3-.006 4.466.494 6.5 1.5a4393.587 4393.587 0 0 1 45 79.5c1.574 1.131 3.241 1.298 5 .5 4.965-3.621 7.798-8.455 8.5-14.5a31868.04 31868.04 0 0 1 26-356c3.259-19.026 12.093-34.86 26.5-47.5a22.956 22.956 0 0 1 5-2c44.246-6.51 88.41-13.01 132.5-19.5 3.27.423 6.44 1.256 9.5 2.5 8.98 6.454 15.14 14.954 18.5 25.5a73.43 73.43 0 0 1 1.5 12c-1 10.018-2.17 20.018-3.5 30a127809.897 127809.897 0 0 1-104 705 40.001 40.001 0 0 1-5 13 39.806 39.806 0 0 0-7 8 24.648 24.648 0 0 1-11.5 4.5c-35.333.667-70.667.667-106 0-6.969-1.632-11.802-5.799-14.5-12.5a8348.9 8348.9 0 0 1-60-162c-4.099-8.927-10.932-12.094-20.5-9.5a3120.932 3120.932 0 0 0-53-14.5c-4.974.789-9.141 3.123-12.5 7a15470.127 15470.127 0 0 0-95 180 45.689 45.689 0 0 0-7.5 8.5 57.56 57.56 0 0 1-8 3c-36 .667-72 .667-108 0a57.56 57.56 0 0 1-8-3c-7.371-6.75-10.871-15.25-10.5-25.5a51726.033 51726.033 0 0 1 1-642c4.415-14.989 12.915-27.155 25.5-36.5 41.58-21.652 83.247-43.318 125-65 9.716-2.122 18.383-.122 26 6a26.597 26.597 0 0 1 6.5 10.5 976.146 976.146 0 0 1-2.5 75Z"/>
    <path style="opacity:.997" d="M1174.5 96.5c6.39-.71 12.39.457 18 3.5 3.91 4.236 7.41 8.736 10.5 13.5a9312.831 9312.831 0 0 1 79 99c6.37 11.222 10.37 23.222 12 36 1.62 88.089 3.95 176.089 7 264 2.32 8.64 5.98 16.64 11 24a440.683 440.683 0 0 1 24.5 25.5 67.116 67.116 0 0 0 10 4.5 445.97 445.97 0 0 0 31.5-30c12.79-14.121 26.12-27.454 40-40 1.49.817 2.99 1.65 4.5 2.5 3.4 5.976 6.4 12.143 9 18.5a7711.062 7711.062 0 0 0 41 114.5 304.367 304.367 0 0 1 15 53.5 7.248 7.248 0 0 1-2 2.5 4302.58 4302.58 0 0 0-79 33c-4.71.496-9.37.162-14-1a261.19 261.19 0 0 0-24.5-10.5c-4.69.833-7.69 3.5-9 8a8127.103 8127.103 0 0 1-20 102c-2.17 2.833-4.33 5.667-6.5 8.5a32.543 32.543 0 0 0-7 3 1448.62 1448.62 0 0 1-106 1 35.637 35.637 0 0 1-9-3c-5.87-6.47-7.53-13.97-5-22.5a6611.325 6611.325 0 0 1 26-122c7.88-23.7 2.55-43.533-16-59.5-16.75-8.77-26.58-22.604-29.5-41.5-7.47-157.073-14.8-314.073-22-471 1.18-3.717 2.51-7.384 4-11 1.8-2.326 3.97-3.992 6.5-5ZM396.5 226.5c7.956-1.235 14.123 1.432 18.5 8a54.628 54.628 0 0 1 2 7 738.517 738.517 0 0 1 2 88 264.872 264.872 0 0 1-7 25c-7.825 15.503-17.658 29.67-29.5 42.5a23350.382 23350.382 0 0 1-183 154c-19.073 15.915-34.74 34.748-47 56.5a70.417 70.417 0 0 0-3.5 11c.28 34.012 1.28 68.012 3 102-.023 11.802 5.811 18.302 17.5 19.5 10.925.511 21.591-.989 32-4.5a2637.783 2637.783 0 0 0 103-32.5c5.963-4.929 8.63-11.262 8-19-.476-7.168-.976-14.335-1.5-21.5-1.729-3.203-4.396-5.203-8-6a7035.903 7035.903 0 0 0-73.5 30.5c-7.347 1.957-14.681 1.957-22 0a34.949 34.949 0 0 1-5.5-8.5c-.875-17.831-1.708-35.665-2.5-53.5a58.512 58.512 0 0 1 1.5-13.5c4.898-10.897 11.732-20.397 20.5-28.5a13265.476 13265.476 0 0 0 129-90 66.876 66.876 0 0 0 13-8.5c9.737-4.749 19.904-7.749 30.5-9 23.562 2.158 36.229 15.158 38 39a8828.135 8828.135 0 0 1 2 231c-3.22 31.295-17.387 56.128-42.5 74.5-10.875 7.181-22.875 11.181-36 12-76.344.933-152.677.599-229-1a549.372 549.372 0 0 1-31-3c-20.78-2.862-40.78-8.529-60-17a39.879 39.879 0 0 0-9-6 28.4 28.4 0 0 1-4.5-7.5c-.667-27-.667-54 0-81a159.46 159.46 0 0 1 14-35 1586.68 1586.68 0 0 1 74-124 1723.488 1723.488 0 0 0 40-57 7511.437 7511.437 0 0 0 134-158 4157.473 4157.473 0 0 0 82-96c8.52-9.385 18.687-16.052 30.5-20Z"/>
</svg>