<svg xmlns="http://www.w3.org/2000/svg" version="1.1" width="1516px" height="891px" style="shape-rendering:geometricPrecision; text-rendering:geometricPrecision; image-rendering:optimizeQuality; fill-rule:evenodd; clip-rule:evenodd" xmlns:xlink="http://www.w3.org/1999/xlink">
<g><path style="opacity:0.998" d="M 659.5,151.5 C 658.469,153.961 657.802,156.627 657.5,159.5C 655.74,201.517 653.573,243.517 651,285.5C 647.738,334.897 644.405,384.23 641,433.5C 640.2,441.216 640.367,448.883 641.5,456.5C 645.577,460.393 649.577,460.393 653.5,456.5C 676.241,423.954 699.075,391.621 722,359.5C 726.642,354.068 732.476,351.568 739.5,352C 764.788,365.326 790.121,378.659 815.5,392C 819.639,391.366 823.806,390.533 828,389.5C 830.3,389.494 832.466,389.994 834.5,391C 849.84,417.458 864.84,443.958 879.5,470.5C 881.074,471.631 882.741,471.798 884.5,471C 889.465,467.379 892.298,462.545 893,456.5C 901.006,337.729 909.673,219.062 919,100.5C 922.259,81.4741 931.093,65.6408 945.5,53C 947.087,52.1376 948.754,51.4709 950.5,51C 994.746,44.4891 1038.91,37.9891 1083,31.5C 1086.27,31.9227 1089.44,32.756 1092.5,34C 1101.48,40.4543 1107.64,48.9543 1111,59.5C 1111.83,63.4592 1112.33,67.4592 1112.5,71.5C 1111.5,81.5181 1110.33,91.5181 1109,101.5C 1074.96,336.801 1040.29,571.801 1005,806.5C 1004.09,811.126 1002.43,815.46 1000,819.5C 997.294,821.871 994.961,824.537 993,827.5C 989.548,829.976 985.715,831.476 981.5,832C 946.167,832.667 910.833,832.667 875.5,832C 868.531,830.368 863.698,826.201 861,819.5C 840.448,765.725 820.448,711.725 801,657.5C 796.901,648.573 790.068,645.406 780.5,648C 762.867,643.009 745.2,638.175 727.5,633.5C 722.526,634.289 718.359,636.623 715,640.5C 682.974,700.225 651.307,760.225 620,820.5C 617.157,823.011 614.657,825.844 612.5,829C 609.911,830.197 607.244,831.197 604.5,832C 568.5,832.667 532.5,832.667 496.5,832C 493.756,831.197 491.089,830.197 488.5,829C 481.129,822.25 477.629,813.75 478,803.5C 477.005,589.466 477.339,375.466 479,161.5C 483.415,146.511 491.915,134.345 504.5,125C 546.08,103.348 587.747,81.6816 629.5,60C 639.216,57.8783 647.883,59.8783 655.5,66C 658.491,68.9904 660.657,72.4904 662,76.5C 662.128,101.526 661.295,126.526 659.5,151.5 Z"/></g>
<g><path style="opacity:0.997" d="M 1174.5,96.5 C 1180.89,95.7906 1186.89,96.9573 1192.5,100C 1196.41,104.236 1199.91,108.736 1203,113.5C 1229.58,146.353 1255.92,179.353 1282,212.5C 1288.37,223.722 1292.37,235.722 1294,248.5C 1295.62,336.589 1297.95,424.589 1301,512.5C 1303.32,521.14 1306.98,529.14 1312,536.5C 1320.53,544.697 1328.7,553.197 1336.5,562C 1339.71,563.774 1343.05,565.274 1346.5,566.5C 1357.48,557.02 1367.98,547.02 1378,536.5C 1390.79,522.379 1404.12,509.046 1418,496.5C 1419.49,497.317 1420.99,498.15 1422.5,499C 1425.9,504.976 1428.9,511.143 1431.5,517.5C 1444.87,555.791 1458.54,593.958 1472.5,632C 1479.13,649.372 1484.13,667.205 1487.5,685.5C 1487.02,686.478 1486.36,687.311 1485.5,688C 1458.96,698.78 1432.62,709.78 1406.5,721C 1401.79,721.496 1397.13,721.162 1392.5,720C 1384.46,716.06 1376.29,712.56 1368,709.5C 1363.31,710.333 1360.31,713 1359,717.5C 1352.54,751.606 1345.87,785.606 1339,819.5C 1336.83,822.333 1334.67,825.167 1332.5,828C 1330.05,828.725 1327.72,829.725 1325.5,831C 1290.2,832.626 1254.87,832.96 1219.5,832C 1216.36,831.399 1213.36,830.399 1210.5,829C 1204.63,822.53 1202.97,815.03 1205.5,806.5C 1213.77,765.805 1222.44,725.138 1231.5,684.5C 1239.38,660.8 1234.05,640.967 1215.5,625C 1198.75,616.23 1188.92,602.396 1186,583.5C 1178.53,426.427 1171.2,269.427 1164,112.5C 1165.18,108.783 1166.51,105.116 1168,101.5C 1169.8,99.1743 1171.97,97.5077 1174.5,96.5 Z"/></g>
<g><path style="opacity:0.997" d="M 396.5,226.5 C 404.456,225.265 410.623,227.932 415,234.5C 415.822,236.788 416.489,239.122 417,241.5C 419.416,270.765 420.082,300.098 419,329.5C 417.081,337.927 414.748,346.26 412,354.5C 404.175,370.003 394.342,384.17 382.5,397C 321.925,448.509 260.925,499.843 199.5,551C 180.427,566.915 164.76,585.748 152.5,607.5C 151.033,611.069 149.866,614.736 149,618.5C 149.28,652.512 150.28,686.512 152,720.5C 151.977,732.302 157.811,738.802 169.5,740C 180.425,740.511 191.091,739.011 201.5,735.5C 236.079,725.362 270.412,714.529 304.5,703C 310.463,698.071 313.13,691.738 312.5,684C 312.024,676.832 311.524,669.665 311,662.5C 309.271,659.297 306.604,657.297 303,656.5C 278.446,666.527 253.946,676.693 229.5,687C 222.153,688.957 214.819,688.957 207.5,687C 205.242,684.415 203.409,681.582 202,678.5C 201.125,660.669 200.292,642.835 199.5,625C 199.477,620.432 199.977,615.932 201,611.5C 205.898,600.603 212.732,591.103 221.5,583C 264.705,553.236 307.705,523.236 350.5,493C 355.175,490.664 359.508,487.831 363.5,484.5C 373.237,479.751 383.404,476.751 394,475.5C 417.562,477.658 430.229,490.658 432,514.5C 433.674,591.493 434.341,668.493 434,745.5C 430.78,776.795 416.613,801.628 391.5,820C 380.625,827.181 368.625,831.181 355.5,832C 279.156,832.933 202.823,832.599 126.5,831C 116.139,830.293 105.805,829.293 95.5,828C 74.7204,825.138 54.7204,819.471 35.5,811C 32.7511,808.577 29.7511,806.577 26.5,805C 24.6227,802.749 23.1227,800.249 22,797.5C 21.3333,770.5 21.3333,743.5 22,716.5C 25.2948,704.25 29.9615,692.583 36,681.5C 58.8233,638.979 83.49,597.646 110,557.5C 123.701,538.792 137.035,519.792 150,500.5C 195.417,448.421 240.084,395.754 284,342.5C 311.787,310.953 339.12,278.953 366,246.5C 374.52,237.115 384.687,230.448 396.5,226.5 Z"/></g>
</svg>
